<svg width="64px" height="10px" viewBox="0 0 64 10" version="1.1" xmlns="http://www.w3.org/2000/svg" xmlns:xlink="http://www.w3.org/1999/xlink">
  <g id="Widget:Header_Desktop" transform="translate(-577.000000, -95.000000)" fill="#2B2E6B">
    <g transform="translate(608.861269, 99.657980) rotate(14.000000) translate(-608.861269, -99.657980) translate(577.861269, 88.157980)">
        <path d="M1.01086964,17.5666384 C0.997027696,17.425713 0.96133005,17.2811741 0.973714948,17.1438621 C1.03491091,16.4744664 0.92053274,15.594586 1.21995585,15.1862636 C1.74740679,14.4671827 2.17650707,15.4509505 2.66898888,15.6587251 C3.16219921,15.8655964 3.78071557,15.8529492 4.29578161,15.6957632 C8.24292134,14.4951871 12.1587346,13.1274879 16.1211733,12.0154418 C28.1257817,8.64858921 40.1493317,5.38201042 52.3003734,2.9131056 C54.4436892,2.47768222 56.6125033,2.23106274 58.7747607,1.95463213 C60.0300065,1.79383262 61.0222554,2.52917419 61.693954,3.76769176 C61.9314526,4.20582525 61.9926485,5.03873057 61.8199885,5.51480552 C61.5744761,6.18871807 61.0302691,5.9393885 60.481691,5.76232836 C59.4544731,5.42898556 58.3675162,5.14984484 57.3155284,5.19681998 C50.9263782,5.48409101 44.7637989,7.46879057 38.5902917,9.29359398 C31.5243433,11.3803741 24.5290617,13.8041105 17.6161033,16.583774 C14.6277003,17.7861568 11.6072424,18.8692951 8.63923806,20.1421406 C7.35048018,20.6940985 6.14841659,21.5658486 4.9215832,22.3282912 C3.02887943,23.5062832 1.91205307,22.9967836 1.28188034,20.4962609 C1.04802433,19.5703087 1.04438172,18.554923 0.935103208,17.5792855 C0.96133005,17.5747687 0.986099846,17.5702518 1.01086964,17.5666384" id="Fill-1"></path>
    </g>
  </g>
</svg>